{
  "accessors": [
    {
      "bufferView": 2,
      "componentType": 5126,
      "count": 784,
      "max": [
        1.0186140537261963,
        1,
        1
      ],
      "min": [
        -1,
        -1,
        -1.1954531669616699
      ],
      "type": "VEC3"
    },
    {
      "bufferView": 2,
      "byteOffset": 9408,
      "componentType": 5126,
      "count": 784,
      "max": [
        1,
        1,
        1
      ],
      "min": [
        -1,
        -1,
        -1
      ],
      "type": "VEC3"
    },
    {
      "bufferView": 1,
      "componentType": 5126,
      "count": 784,
      "max": [
        1,
        1
      ],
      "min": [
        0,
        0
      ],
      "type": "VEC2"
    },
    {
      "bufferView": 0,
      "componentType": 5125,
      "count": 1371,
      "max": [
        778
      ],
      "min": [
        0
      ],
      "type": "SCALAR"
    },
    {
      "bufferView": 2,
      "byteOffset": 18816,
      "componentType": 5126,
      "count": 28,
      "max": [
        0.98438417911529541,
        0.98438417911529541,
        1
      ],
      "min": [
        -0.98438417911529541,
        -0.98438417911529541,
        1
      ],
      "type": "VEC3"
    },
    {
      "bufferView": 2,
      "byteOffset": 19152,
      "componentType": 5126,
      "count": 28,
      "max": [
        0,
        0,
        1
      ],
      "min": [
        0,
        0,
        1
      ],
      "type": "VEC3"
    },
    {
      "bufferView": 1,
      "byteOffset": 6272,
      "componentType": 5126,
      "count": 28,
      "max": [
        0.87300330400466919,
        0.7547871470451355
      ],
      "min": [
        0.62666422128677368,
        0.34229663014411926
      ],
      "type": "VEC2"
    },
    {
      "bufferView": 0,
      "byteOffset": 5484,
      "componentType": 5125,
      "count": 78,
      "max": [
        27
      ],
      "min": [
        0
      ],
      "type": "SCALAR"
    },
    {
      "bufferView": 2,
      "byteOffset": 19488,
      "componentType": 5126,
      "count": 110,
      "max": [
        0.84572029113769531,
        -0.46314132213592529,
        -1.0275557041168213
      ],
      "min": [
        0.58602821826934814,
        -0.8922843337059021,
        -1.1954531669616699
      ],
      "type": "VEC3"
    },
    {
      "bufferView": 2,
      "byteOffset": 20808,
      "componentType": 5126,
      "count": 110,
      "max": [
        4.5706684659307939e-08,
        0,
        1
      ],
      "min": [
        -0.017204463481903076,
        -0.33932957053184509,
        -1
      ],
      "type": "VEC3"
    },
    {
      "bufferView": 1,
      "byteOffset": 6496,
      "componentType": 5126,
      "count": 110,
      "max": [
        0.875,
        0.75
      ],
      "min": [
        0.010000228881835938,
        0.01000000536441803
      ],
      "type": "VEC2"
    },
    {
      "bufferView": 0,
      "byteOffset": 5796,
      "componentType": 5125,
      "count": 201,
      "max": [
        105
      ],
      "min": [
        0
      ],
      "type": "SCALAR"
    }
  ],
  "asset": {
    "extras": {
      "author": "BadduCoder (https://sketchfab.com/BadduCoder)",
      "license": "CC-BY-4.0 (http://creativecommons.org/licenses/by/4.0/)",
      "source": "https://sketchfab.com/3d-models/minimal-smart-phone-b71ba4c82aea4a949ade4c347340037b",
      "title": "Minimal Smart Phone"
    },
    "generator": "Sketchfab-8.55.0",
    "version": "2.0"
  },
  "bufferViews": [
    {
      "buffer": 0,
      "byteLength": 6600,
      "byteOffset": 0,
      "name": "floatBufferViews",
      "target": 34963
    },
    {
      "buffer": 0,
      "byteLength": 7376,
      "byteOffset": 6600,
      "byteStride": 8,
      "name": "floatBufferViews",
      "target": 34962
    },
    {
      "buffer": 0,
      "byteLength": 22128,
      "byteOffset": 13976,
      "byteStride": 12,
      "name": "floatBufferViews",
      "target": 34962
    }
  ],
  "buffers": [
    {
      "byteLength": 36104,
      "uri": "scene.bin"
    }
  ],
  "materials": [
    {
      "doubleSided": true,
      "emissiveFactor": [
        0,
        0,
        0
      ],
      "name": "Metallic_phone",
      "pbrMetallicRoughness": {
        "baseColorFactor": [
          0.0021356499999999998,
          0.00257946,
          0.0020854599999999999,
          1
        ],
        "metallicFactor": 0,
        "roughnessFactor": 0.99945228874554637
      }
    },
    {
      "doubleSided": true,
      "emissiveFactor": [
        0.149061,
        0.63564699999999996,
        1
      ],
      "name": "Screen",
      "pbrMetallicRoughness": {
        "baseColorFactor": [
          0.042469300000000001,
          0.15501000000000001,
          0.288296,
          1
        ],
        "metallicFactor": 0,
        "roughnessFactor": 0.96853693675777053
      }
    },
    {
      "doubleSided": true,
      "emissiveFactor": [
        0,
        0,
        0
      ],
      "name": "Camera",
      "pbrMetallicRoughness": {
        "baseColorFactor": [
          0,
          0,
          0,
          1
        ],
        "metallicFactor": 0,
        "roughnessFactor": 1
      }
    }
  ],
  "meshes": [
    {
      "name": "Cube_Metallic phone_0",
      "primitives": [
        {
          "attributes": {
            "NORMAL": 1,
            "POSITION": 0,
            "TEXCOORD_0": 2
          },
          "indices": 3,
          "material": 0,
          "mode": 4
        }
      ]
    },
    {
      "name": "Cube_Screen_0",
      "primitives": [
        {
          "attributes": {
            "NORMAL": 5,
            "POSITION": 4,
            "TEXCOORD_0": 6
          },
          "indices": 7,
          "material": 1,
          "mode": 4
        }
      ]
    },
    {
      "name": "Cube_Camera_0",
      "primitives": [
        {
          "attributes": {
            "NORMAL": 9,
            "POSITION": 8,
            "TEXCOORD_0": 10
          },
          "indices": 11,
          "material": 2,
          "mode": 4
        }
      ]
    }
  ],
  "nodes": [
    {
      "children": [
        1
      ],
      "name": "RootNode (gltf orientation matrix)",
      "rotation": [
        -0.70710678118654746,
        -0,
        -0,
        0.70710678118654757
      ]
    },
    {
      "children": [
        2
      ],
      "name": "RootNode (model correction matrix)"
    },
    {
      "children": [
        3
      ],
      "matrix": [
        1,
        0,
        0,
        0,
        0,
        0,
        1,
        0,
        0,
        -1,
        0,
        0,
        0,
        0,
        0,
        1
      ],
      "name": "e04df3af46314ce68bc2c37460bdd76f.fbx"
    },
    {
      "children": [
        4
      ],
      "name": "RootNode"
    },
    {
      "children": [
        5,
        6,
        7
      ],
      "matrix": [
        419.38790893554523,
        3.6664056815569224e-05,
        -0,
        -0,
        3.3608260179097209e-12,
        -3.8443367181035127e-05,
        879.48168945312409,
        -0,
        -2.9731071940468486e-06,
        34.008380889892415,
        1.4865536024923925e-06,
        -0,
        0,
        0,
        0,
        1
      ],
      "name": "Cube"
    },
    {
      "mesh": 0,
      "name": "Cube_Metallic phone_0"
    },
    {
      "mesh": 1,
      "name": "Cube_Screen_0"
    },
    {
      "mesh": 2,
      "name": "Cube_Camera_0"
    }
  ],
  "scene": 0,
  "scenes": [
    {
      "name": "OSG_Scene",
      "nodes": [
        0
      ]
    }
  ]
}

